<svg version="1" xmlns="http://www.w3.org/2000/svg" width="1333.333" height="1333.333" viewBox="0 0 1000.000000 1000.000000"><path d="M7.9 57.4c-.3.3-.3 882.4 0 887.3.1 1 20.2 1.3 97.1 1.3 91.7 0 97-.1 97.1-1.8 0-.9.1-79 .1-173.5l.1-171.9 22.6 22.6c12.4 12.4 59.8 59.6 105.3 104.9l82.7 82.3-68.9 68.7c-38 37.8-69 69-69 69.3 0 .3 81.6.3 181.3 0 99.6-.3 223.4-.5 274.9-.6 51.6 0 93.8-.3 93.8-.7 0-.4-30.6-31.1-68-68.4-37.4-37.2-68-67.9-68-68.3 0-.3 61.5-61.9 136.6-136.8C941.7 556 993 504.6 994.9 502.5c.2-.3-30.4-31.1-68-68.5C806.7 314.3 689 196.8 688.4 195.9c-.3-.5 30.7-32 68.8-70.1l69.3-69.1-207.4.7c-114.1.3-238.4.6-276.2.6h-68.8l69 68.7 68.9 68.8-103.7 103.3C251.2 355.6 204 402.6 203.4 403.1c-.8.6-1.1-47-1.2-171.4 0-94.7-.1-172.8-.1-173.5-.1-.9-20.2-1.2-96.9-1.2-53.3 0-97.1.2-97.3.4zm627.3 360.5c46.1 45.9 83.8 83.9 83.8 84.5 0 .5-37.9 38.7-84.2 84.8l-84.2 83.9-11.1-11c-6-6.1-44.2-44.1-84.7-84.4-40.6-40.4-73.8-73.7-73.8-74 0-1.4 168.5-168.5 169.4-167.9.5.3 38.7 38.1 84.8 84.1z"/></svg>